<svg xmlns="http://www.w3.org/2000/svg" width="512" height="512" viewBox="0 0 512 512">
  <defs>
    <linearGradient id="bg" x1="0" y1="0" x2="1" y2="1">
      <stop offset="0" stop-color="#1DB954"/>
      <stop offset="0.55" stop-color="#0F8F45"/>
      <stop offset="1" stop-color="#121212"/>
    </linearGradient>
    <filter id="shadow" x="-20%" y="-20%" width="140%" height="140%">
      <feDropShadow dx="0" dy="18" stdDeviation="20" flood-color="#000000" flood-opacity="0.28"/>
    </filter>
  </defs>
  <rect width="512" height="512" rx="108" fill="url(#bg)"/>
  <circle cx="256" cy="252" r="160" fill="#121212" filter="url(#shadow)"/>
  <circle cx="256" cy="252" r="118" fill="none" stroke="#1DB954" stroke-width="18"/>
  <path d="M169 217c62-20 128-17 187 13" fill="none" stroke="#ffffff" stroke-width="20" stroke-linecap="round"/>
  <path d="M185 259c47-14 103-11 148 12" fill="none" stroke="#ffffff" stroke-width="16" stroke-linecap="round" opacity="0.88"/>
  <path d="M201 299c35-9 76-7 109 9" fill="none" stroke="#ffffff" stroke-width="13" stroke-linecap="round" opacity="0.76"/>
  <rect x="172" y="116" width="168" height="64" rx="18" fill="#ffffff"/>
  <rect x="194" y="92" width="24" height="50" rx="8" fill="#121212"/>
  <rect x="294" y="92" width="24" height="50" rx="8" fill="#121212"/>
  <text x="256" y="158" font-family="Arial, Helvetica, sans-serif" font-size="37" font-weight="700" fill="#121212" text-anchor="middle">7</text>
  <circle cx="377" cy="365" r="34" fill="#1DB954" stroke="#ffffff" stroke-width="10"/>
  <path d="M362 365l13 13 25-30" fill="none" stroke="#121212" stroke-width="9" stroke-linecap="round" stroke-linejoin="round"/>
</svg>
