<svg xmlns="http://www.w3.org/2000/svg" width="1800" height="900" viewBox="0 0 1800 900">
  <defs>
    <linearGradient id="coverBg" x1="0" y1="0" x2="1" y2="1">
      <stop offset="0" stop-color="#121212"/>
      <stop offset="0.52" stop-color="#163D25"/>
      <stop offset="1" stop-color="#1DB954"/>
    </linearGradient>
    <linearGradient id="panel" x1="0" y1="0" x2="1" y2="1">
      <stop offset="0" stop-color="#1DB954" stop-opacity="0.96"/>
      <stop offset="1" stop-color="#0F8F45" stop-opacity="0.92"/>
    </linearGradient>
    <filter id="softShadow" x="-20%" y="-20%" width="140%" height="140%">
      <feDropShadow dx="0" dy="24" stdDeviation="26" flood-color="#000000" flood-opacity="0.30"/>
    </filter>
  </defs>
  <rect width="1800" height="900" rx="48" fill="url(#coverBg)"/>
  <circle cx="1465" cy="175" r="270" fill="#1DB954" opacity="0.16"/>
  <circle cx="1550" cy="730" r="220" fill="#ffffff" opacity="0.08"/>
  <circle cx="350" cy="720" r="250" fill="#1DB954" opacity="0.10"/>

  <rect x="105" y="115" width="1590" height="670" rx="42" fill="#181818" opacity="0.70" stroke="#2D2D2D" stroke-width="2"/>
  <rect x="1320" y="220" width="300" height="300" rx="64" fill="url(#panel)" filter="url(#softShadow)"/>
  <circle cx="1470" cy="370" r="100" fill="#121212"/>
  <path d="M1418 342c38-13 80-11 116 8" fill="none" stroke="#ffffff" stroke-width="16" stroke-linecap="round"/>
  <path d="M1429 374c29-9 64-7 92 7" fill="none" stroke="#ffffff" stroke-width="13" stroke-linecap="round" opacity="0.88"/>
  <path d="M1440 402c22-6 48-4 69 6" fill="none" stroke="#ffffff" stroke-width="10" stroke-linecap="round" opacity="0.78"/>
  <rect x="1419" y="253" width="102" height="42" rx="13" fill="#ffffff"/>
  <rect x="1434" y="236" width="16" height="32" rx="6" fill="#121212"/>
  <rect x="1490" y="236" width="16" height="32" rx="6" fill="#121212"/>
  <text x="1470" y="282" font-family="Arial, Helvetica, sans-serif" font-size="24" font-weight="700" fill="#121212" text-anchor="middle">7</text>

  <text x="180" y="255" font-family="Arial, Helvetica, sans-serif" font-size="28" font-weight="700" fill="#1DB954">M122E Python Automation Project</text>
  <text x="180" y="345" font-family="Arial, Helvetica, sans-serif" font-size="70" font-weight="800" fill="#ffffff">Weekly Spotify Wrapped</text>
  <text x="180" y="410" font-family="Arial, Helvetica, sans-serif" font-size="31" font-weight="400" fill="#d1d5db">A weekly music report using Last.fm, Spotify, SQLite and Gmail SMTP</text>

  <rect x="180" y="495" width="220" height="82" rx="18" fill="#1DB954"/>
  <text x="290" y="529" font-family="Arial, Helvetica, sans-serif" font-size="18" font-weight="700" fill="#121212" text-anchor="middle">Last.fm</text>
  <text x="290" y="556" font-family="Arial, Helvetica, sans-serif" font-size="15" fill="#121212" text-anchor="middle">scrobbles</text>

  <rect x="430" y="495" width="220" height="82" rx="18" fill="#ffffff" opacity="0.94"/>
  <text x="540" y="529" font-family="Arial, Helvetica, sans-serif" font-size="18" font-weight="700" fill="#121212" text-anchor="middle">Spotify</text>
  <text x="540" y="556" font-family="Arial, Helvetica, sans-serif" font-size="15" fill="#121212" text-anchor="middle">metadata</text>

  <rect x="680" y="495" width="220" height="82" rx="18" fill="#ffffff" opacity="0.94"/>
  <text x="790" y="529" font-family="Arial, Helvetica, sans-serif" font-size="18" font-weight="700" fill="#121212" text-anchor="middle">SQLite</text>
  <text x="790" y="556" font-family="Arial, Helvetica, sans-serif" font-size="15" fill="#121212" text-anchor="middle">history</text>

  <rect x="930" y="495" width="220" height="82" rx="18" fill="#ffffff" opacity="0.94"/>
  <text x="1040" y="529" font-family="Arial, Helvetica, sans-serif" font-size="18" font-weight="700" fill="#121212" text-anchor="middle">Gmail</text>
  <text x="1040" y="556" font-family="Arial, Helvetica, sans-serif" font-size="15" fill="#121212" text-anchor="middle">report email</text>

  <path d="M404 536h22M654 536h22M904 536h22" stroke="#1DB954" stroke-width="8" stroke-linecap="round"/>
  <text x="180" y="685" font-family="Arial, Helvetica, sans-serif" font-size="22" fill="#d1d5db">Built as a clean, modular and documented automation script.</text>
</svg>
